<?xml version="1.0" encoding="UTF-8"?>
<svg version="1.1" xmlns="http://www.w3.org/2000/svg" width="823" height="823">
<path d="M0 0 C10.3142949 1.11102533 19.86732732 3.46406868 29.79248047 6.36523438 C33.18080206 7.33953609 36.58956417 8.2318842 40 9.125 C53.00384252 12.57697952 65.65374377 16.83043742 78.3125 21.375 C79.36373047 21.74882812 80.41496094 22.12265625 81.49804688 22.5078125 C92.4137385 26.42592185 103.03511764 30.87860137 113.5 35.875 C114.8617334 36.52408325 114.8617334 36.52408325 116.25097656 37.1862793 C122.1833716 40.04597347 127.90262819 43.08088203 133.53125 46.50390625 C135.73703876 47.84064216 137.96676307 49.05300452 140.25 50.25 C151.16267777 56.27284402 161.54003258 63.91830597 171 72 C172.35351562 73.15242187 172.35351562 73.15242187 173.734375 74.328125 C190.30444067 88.88414954 204.42496702 109.37431924 206.3359375 131.97265625 C206.89238172 157.32314795 195.09682371 178.38100358 178.0012207 196.38671875 C156.18387974 218.78036684 127.36642898 233.05248623 98.89648438 245.18408203 C97.09558385 245.95887729 95.30524225 246.7580811 93.515625 247.55859375 C84.9341438 251.36489589 76.21572468 254.37600061 67.29248047 257.25 C65.07272104 257.97620883 62.86564507 258.73165552 60.66015625 259.5 C49.49551882 263.368311 38.18936579 266.41172078 26.73413086 269.29467773 C23.96044824 270.01020315 21.20368185 270.77460922 18.4453125 271.546875 C13.27438363 272.96749016 8.07908774 274.06345174 2.8125 275.0625 C-1.77347625 275.94156704 -6.32189868 276.82427252 -10.84375 277.99609375 C-16.26168267 279.38869558 -21.78836938 280.15267979 -27.3125 281 C-33.44585286 281.95102261 -39.57277166 282.9034404 -45.67578125 284.03515625 C-85.46459078 291.37626502 -126.37468557 293.42676187 -166.75 294.5625 C-167.52742554 294.58482697 -168.30485107 294.60715393 -169.10583496 294.63015747 C-185.77012638 295.10170948 -202.39833933 295.09153158 -219.0625 294.625 C-220.21345657 294.5933223 -220.21345657 294.5933223 -221.38766479 294.56100464 C-236.37362283 294.13769642 -251.31166628 293.31557484 -266.26611328 292.26171875 C-269.89422056 292.00741438 -273.52305974 291.76808424 -277.15234375 291.53125 C-290.99963509 290.60001941 -304.72637816 289.2022706 -318.47900391 287.33935547 C-320.63420825 287.04923983 -322.79153303 286.77495085 -324.94921875 286.50390625 C-377.5222529 279.85132746 -429.67818241 267.4851625 -479 248 C-479.66854004 247.73703125 -480.33708008 247.4740625 -481.02587891 247.203125 C-487.09202034 244.80003183 -492.95598696 242.1210017 -498.74609375 239.11328125 C-500.96712094 237.97419933 -500.96712094 237.97419933 -503.234375 237.13671875 C-522.26793922 229.31360125 -539.64504723 217.69839147 -555.27075195 204.46044922 C-556.94467416 203.04672585 -558.63704168 201.6578573 -560.33203125 200.26953125 C-562.9675905 198.02756943 -564.88674182 195.72678475 -567 193 C-567.7734375 192.23816406 -568.546875 191.47632813 -569.34375 190.69140625 C-580.70443894 179.18035525 -591.43084713 161.65966887 -592.125 145 C-592.08375 144.34 -592.0425 143.68 -592 143 C-587.53464806 147.2712062 -583.84694084 151.92333806 -580.10546875 156.828125 C-560.27907449 182.51866404 -528.17699722 198.54599021 -498.796875 210.44140625 C-495.952507 211.59753542 -493.15634125 212.82320682 -490.375 214.125 C-484.75036144 216.67469024 -478.83263392 218.4648631 -472.96411133 220.36132812 C-470.86203276 221.04486293 -468.76465524 221.74151046 -466.66796875 222.44140625 C-465.90983887 222.6943042 -465.15170898 222.94720215 -464.37060547 223.20776367 C-462.77282187 223.74172946 -461.17549977 224.27707796 -459.57861328 224.8137207 C-446.77059122 229.09600385 -433.98135344 232.61017715 -420.77099609 235.40722656 C-418.00523791 235.9988795 -415.24655929 236.61665903 -412.48828125 237.2421875 C-385.27169976 243.37335619 -357.74187758 248.29335201 -329.90332031 250.35424805 C-328.94522461 250.42554932 -327.98712891 250.49685059 -327 250.5703125 C-326.154375 250.62977051 -325.30875 250.68922852 -324.4375 250.75048828 C-322 251 -322 251 -319.69360352 251.47973633 C-261.50878704 262.71800732 -192.3086515 257.22034814 -133.88500977 250.42919922 C-130.44517192 250.04918068 -127.01407315 249.74626967 -123.5625 249.5 C-118.91133146 249.13582884 -114.41406441 248.4206106 -109.8359375 247.53515625 C-101.14037779 245.89425862 -92.34877718 244.74977394 -83.58203125 243.5625 C-71.29255521 241.6326368 -59.13848046 238.69810091 -47 236 C-46.09717285 235.80003418 -45.1943457 235.60006836 -44.26416016 235.39404297 C-27.20981654 231.58264353 -10.54736306 226.60399196 6 221 C6.77553223 220.73799805 7.55106445 220.47599609 8.35009766 220.20605469 C19.10734625 216.55133447 29.64020425 212.68031382 40 208 C40.89203125 207.60296875 41.7840625 207.2059375 42.703125 206.796875 C45.4780222 205.55066368 48.23891111 204.27651875 51 203 C51.66499512 202.69803711 52.32999023 202.39607422 53.01513672 202.08496094 C55.26346223 201.06385683 57.50692923 200.03258977 59.75 199 C60.45938721 198.6798291 61.16877441 198.3596582 61.8996582 198.02978516 C65.99941452 196.12754432 69.55039181 193.98568475 73.16577148 191.28149414 C75.18268931 189.87236308 77.25764502 188.72065154 79.42578125 187.55859375 C102.63632578 174.93893473 122.99821483 153.52278698 131.421875 128.30078125 C134.08308643 117.70987901 134.37637825 105.45069457 131 95 C130.55720703 93.54400391 130.55720703 93.54400391 130.10546875 92.05859375 C123.59441685 72.93956857 108.56432335 58.02344764 92.66943359 46.23876953 C91.11937104 45.08857687 89.58438941 43.91813601 88.05078125 42.74609375 C82.82065812 38.81417522 77.50555887 35.44768408 71.703125 32.421875 C69.66052554 31.34744407 67.64522863 30.22088817 65.64453125 29.0703125 C51.5418323 20.96575252 36.59680122 14.50945412 21.2578125 9.15625 C17.55021186 7.84036296 13.90851286 6.39775524 10.265625 4.9140625 C6.86778432 3.54320953 3.43573355 2.27249391 0 1 C0 0.67 0 0.34 0 0 Z " fill="#FA852C" transform="translate(606,459)"/>
<path d="M0 0 C0 3.5651868 -0.45514315 3.82264534 -2.8125 6.3125 C-13.73763514 18.3655337 -23.44092368 31.57841753 -31 46 C-31.40863281 46.73089844 -31.81726563 47.46179688 -32.23828125 48.21484375 C-41.12855668 64.75681135 -43.54857991 82.47628487 -43 101 C-42.98195313 101.88300781 -42.96390625 102.76601562 -42.9453125 103.67578125 C-42.47973604 111.60427443 -39.88440904 119.25430521 -37.64208984 126.82714844 C-37.06819654 128.76922083 -36.51144686 130.71634024 -35.95703125 132.6640625 C-33.87820932 139.77448199 -31.25840002 146.35321059 -28 153 C-27.71640625 153.59151855 -27.4328125 154.18303711 -27.140625 154.79248047 C-18.60316238 172.59544145 -8.30324089 189.12111779 3.63671875 204.85546875 C9.51848 212.68161388 15.19557103 220.6659836 20.56640625 228.8515625 C22.20679658 231.30991313 23.91374831 233.71549973 25.625 236.125 C28.3407579 239.98423491 30.70959753 243.87727556 33 248 C35.54987599 252.22650678 38.22949304 256.3527782 41 260.4375 C43.43839335 264.0671695 45.5749439 267.78258874 47.65625 271.625 C49.15604722 274.27580439 50.78179229 276.81881967 52.4375 279.375 C62.2438965 294.68563195 70.78075496 311.25088539 75 329 C75.19980469 329.75410156 75.39960937 330.50820313 75.60546875 331.28515625 C77.85942657 339.80952305 79.32817154 348.19100824 79.6875 357 C79.72657471 357.90210205 79.76564941 358.8042041 79.8059082 359.73364258 C80.24399073 371.89656163 79.98503687 384.1486929 77 396 C76.58234375 397.83111328 76.58234375 397.83111328 76.15625 399.69921875 C72.78744609 414.21462033 67.27165188 427.04527806 60 440 C59.5191394 440.87301758 59.5191394 440.87301758 59.02856445 441.76367188 C56.69563059 445.94566324 54.1135781 449.86793002 51.3125 453.75 C50.87752197 454.35489258 50.44254395 454.95978516 49.99438477 455.58300781 C43.88913552 463.99502909 37.22583965 471.88272035 30.22265625 479.55859375 C28.7998021 481.12148275 27.38961275 482.69605564 25.99609375 484.28515625 C16.34084689 495.25952602 6.09453651 505.88043529 -5.4140625 514.91796875 C-8.28588758 517.23017837 -10.98067978 519.68461829 -13.6875 522.1875 C-25.46148596 533 -25.46148596 533 -29 533 C-27.68487608 529.54626336 -26.17415776 526.35142258 -24.375 523.125 C-23.84132813 522.15304687 -23.30765625 521.18109375 -22.7578125 520.1796875 C-21.57223304 518.03510598 -20.37934895 515.89454856 -19.1796875 513.7578125 C-8.41659776 494.32514649 0.1993931 473.42941189 6 452 C6.41605477 450.58927786 6.83410951 449.1791444 7.25390625 447.76953125 C12.32859018 430.28016481 15.35310035 411.23995825 14 393 C13.93570801 392.11441406 13.87141602 391.22882813 13.80517578 390.31640625 C12.60606612 375.38761361 9.63751722 361.7080733 4.84912109 347.53759766 C3.85483862 344.56618534 2.93809881 341.57573641 2.03076172 338.5769043 C-3.23118925 321.18560246 -3.23118925 321.18560246 -10.68359375 304.66796875 C-12.01358639 301.97246437 -13.10218435 299.22644963 -14.18066406 296.42260742 C-18.89913664 284.27071276 -25.39942641 273.210498 -32 262 C-32.53383301 261.08653809 -33.06766602 260.17307617 -33.61767578 259.23193359 C-39.00858396 250.02072313 -44.54735611 241.04129907 -50.71875 232.33203125 C-55.50515723 225.45897034 -59.7130395 218.18992882 -64 211 C-64.38607422 210.35853027 -64.77214844 209.71706055 -65.16992188 209.05615234 C-70.20913092 200.65971625 -74.38693865 192.10648978 -78 183 C-78.24991699 182.38431152 -78.49983398 181.76862305 -78.75732422 181.13427734 C-91.30778096 150.10432754 -96.7646366 118.31993236 -85.02734375 86.33203125 C-83.88176988 83.73162211 -82.50598597 81.40882831 -81 79 C-80.51402344 78.195625 -80.02804687 77.39125 -79.52734375 76.5625 C-74.82250854 68.97927666 -69.53179497 61.98655512 -64 55 C-63.2884375 54.09765625 -62.576875 53.1953125 -61.84375 52.265625 C-59.717815 49.65324725 -57.40973631 47.35369593 -55 45 C-54.4740625 44.46375 -53.948125 43.9275 -53.40625 43.375 C-49.77440352 39.67711995 -46.02016062 36.19525376 -42.09375 32.8125 C-39.91155426 30.92343503 -37.76881367 28.99495176 -35.625 27.0625 C-28.2841832 20.5442535 -20.52105494 14.59579141 -12.6875 8.6875 C-11.66450806 7.9135791 -11.66450806 7.9135791 -10.62084961 7.12402344 C-7.17867707 4.54377056 -3.75019138 2.12535024 0 0 Z " fill="#FA852C" transform="translate(442,71)"/>
<path d="M0 0 C-0.01047363 0.71091797 -0.02094727 1.42183594 -0.03173828 2.15429688 C-0.49666457 39.08945347 0.72005876 75.41576732 15 110 C15.4125 111.05058594 15.825 112.10117187 16.25 113.18359375 C16.6625 114.21613281 17.075 115.24867188 17.5 116.3125 C17.8609375 117.21613281 18.221875 118.11976563 18.59375 119.05078125 C20.03956355 122.08297355 21.70037327 124.81931708 23.50585938 127.64624023 C26.58901595 132.5032194 29.53079091 137.4478768 32.5 142.375 C33.15097656 143.4475 33.80195313 144.52 34.47265625 145.625 C37.85595796 151.24333133 41.0435892 156.87739702 43.91357422 162.77490234 C45.45960989 165.94132236 47.13578256 169.02572018 48.8125 172.125 C54.75337119 183.19132869 60.36916971 194.40829918 65.55859375 205.84765625 C66.54829227 208.01211887 67.56274105 210.16538305 68.59765625 212.30859375 C79.16554317 234.35315394 79.68997677 258.78700036 72 282 C66.71439778 296.81390756 59.51240988 311.74173328 51 325 C50.67 325 50.34 325 50 325 C49.98541748 324.36199463 49.97083496 323.72398926 49.95581055 323.06665039 C48.91890861 282.2610784 35.7091785 250.38903219 10.625 218.390625 C-0.90839369 203.61013739 -11.95199994 188.0705172 -20.68359375 171.453125 C-21.99483335 169.00962807 -23.41252799 166.66805492 -24.875 164.3125 C-30.91529221 154.32461524 -35.89098957 143.83633103 -39.91796875 132.88671875 C-40.87714077 130.32777245 -41.92426676 127.85801845 -43.0625 125.375 C-52.34756525 104.88771028 -54.31182293 83.68979025 -46.84326172 62.21240234 C-43.4515891 53.31392602 -38.98336802 44.82686198 -33.421875 37.08984375 C-31.84942395 34.85295487 -31.84942395 34.85295487 -30.20703125 31.703125 C-27.91330107 27.64403214 -25.03065383 24.28237529 -21.9375 20.8125 C-21.37184326 20.16974121 -20.80618652 19.52698242 -20.22338867 18.86474609 C-18.4904078 16.90239655 -16.7472277 14.94966853 -15 13 C-14.45698242 12.39236816 -13.91396484 11.78473633 -13.35449219 11.15869141 C-3.35398215 0 -3.35398215 0 0 0 Z " fill="#FA852C" transform="translate(287,193)"/>
<path d="M0 0 C5.24522316 0.46375449 8.77130033 2.42451076 13 5.375 C13.64646484 5.81763184 14.29292969 6.26026367 14.95898438 6.71630859 C33.07146027 19.2709475 49.49358391 33.18270332 54 56 C54.39626101 59.73907824 54.34945738 63.25971403 54 67 C53.9175 67.89332031 53.835 68.78664063 53.75 69.70703125 C52.27308615 80.46081023 46.93448161 89.79740716 40 98 C39.319375 98.81339844 38.63875 99.62679687 37.9375 100.46484375 C33.08488606 106.06725394 28.01029819 110.68148945 22 115 C21.42765625 115.43828125 20.8553125 115.8765625 20.265625 116.328125 C3.80308377 128.71422745 -18.33655906 138.42765602 -38.078125 144.109375 C-40.69586168 144.90729474 -43.11852626 145.84848038 -45.625 146.9375 C-53.46004815 150.16740713 -61.79243454 151.97022118 -70 154 C-70.8775293 154.21833496 -71.75505859 154.43666992 -72.65917969 154.66162109 C-75.33350846 155.32361747 -78.00988573 155.97642837 -80.6875 156.625 C-81.48067627 156.81892334 -82.27385254 157.01284668 -83.09106445 157.21264648 C-96.50378496 160.40653787 -110.10162941 162.60416319 -123.75 164.5 C-124.51235962 164.60638794 -125.27471924 164.71277588 -126.06018066 164.8223877 C-177.89035536 171.98456018 -230.94613026 173.53307387 -283 168 C-280.14671035 165.14671035 -278.18664216 165.73015174 -274.1875 165.69140625 C-272.72444224 165.66832547 -271.26138904 165.64495495 -269.79833984 165.62133789 C-269.01787292 165.61216339 -268.23740601 165.60298889 -267.43328857 165.59353638 C-252.04572677 165.39726941 -236.72296142 164.66269826 -221.375 163.5625 C-220.48280762 163.50087677 -219.59061523 163.43925354 -218.67138672 163.37576294 C-210.20398716 162.78615281 -201.89182991 162.14952043 -193.56347656 160.44555664 C-190.67034797 159.94270334 -187.82900846 159.73722615 -184.8984375 159.5546875 C-177.46534919 159.05182865 -170.21701404 157.82313624 -162.88964844 156.52587891 C-160.63580364 156.12691242 -158.38061037 155.73650386 -156.125 155.34765625 C-137.43568886 152.16398046 -137.43568886 152.16398046 -119.0625 147.5625 C-113.21170663 145.88395731 -107.35206319 144.31286398 -101.4375 142.875 C-96.5668848 141.683423 -91.78824455 140.3789494 -87.05859375 138.70703125 C-84.78834964 137.92730794 -82.49720076 137.27813813 -80.1875 136.625 C-74.96983854 135.06287339 -70.02369456 133.04533654 -65.03125 130.87646484 C-62.59944327 129.82716362 -60.15889528 128.79928974 -57.71875 127.76953125 C-41.47299088 120.86866574 -26.04081182 113.8105637 -12 103 C-10.12598423 101.68609509 -8.25097333 100.37360843 -6.375 99.0625 C7.54046194 88.89350858 19.98623344 73.32019016 23.61328125 56.0859375 C24.62709945 47.99587304 24.7631911 39.73693509 22 32 C21.69320313 31.08734375 21.38640625 30.1746875 21.0703125 29.234375 C17.00391576 18.29716997 9.77012424 10.42370541 1.43359375 2.4609375 C0 1 0 1 0 0 Z " fill="#FA852C" transform="translate(625,507)"/>
</svg>
